<svg width="40" height="45" viewBox="0 0 40 45" fill="none" xmlns="http://www.w3.org/2000/svg">
<path d="M20 44L1 30.5625V11.75L20 1L39 11.75V30.5625L20 44Z" fill="black"/>
<path d="M20 14.4375L30.8571 33.25H9.14286L20 14.4375Z" fill="black"/>
<path d="M20 1L39 11.75L20 14.4375V1Z" fill="black"/>
<path d="M20 1V14.4375L1 11.75L20 1Z" fill="black"/>
<path d="M20 14.4375L39 11.75L30.8571 33.25L20 14.4375Z" fill="black"/>
<path d="M39 11.75V30.5625L30.8571 33.25L39 11.75Z" fill="black"/>
<path d="M20 14.4375L9.14286 33.25L1 11.75L20 14.4375Z" fill="black"/>
<path d="M1 11.75L9.14286 33.25L1 30.5625V11.75Z" fill="black"/>
<path d="M20 44L30.8571 33.25H9.14286L20 44Z" fill="black"/>
<path d="M20 44L39 30.5625L30.8571 33.25L20 44Z" fill="black"/>
<path d="M20 44L9.14286 33.25L1 30.5625L20 44Z" fill="black"/>
<path d="M20 44L39 30.5625M20 44L1 30.5625M20 44L30.8571 33.25M20 44L9.14286 33.25M20 1L39 11.75M20 1L1 11.75M20 1V14.4375M39 11.75V30.5625M39 11.75L20 14.4375M39 11.75L30.8571 33.25M39 30.5625L30.8571 33.25M1 30.5625V11.75M1 30.5625L9.14286 33.25M1 11.75L20 14.4375M1 11.75L9.14286 33.25M20 14.4375L30.8571 33.25M20 14.4375L9.14286 33.25M30.8571 33.25H9.14286" stroke="white"/>
</svg>
