<svg width="45" height="45" viewBox="0 0 45 45" fill="none" xmlns="http://www.w3.org/2000/svg">
<path d="M22.5 8.16667L36.8333 18.9167M22.5 8.16667L8.16667 18.9167M22.5 8.16667V1M36.8333 18.9167L29.6667 33.25M36.8333 18.9167L44 15.3333M29.6667 33.25H15.3333M29.6667 33.25L36.8333 40.4167M15.3333 33.25L8.16667 18.9167M15.3333 33.25L8.16667 40.4167M8.16667 18.9167L1 15.3333M22.5 1L8.16667 4.58333L1 15.3333M22.5 1L36.8333 4.58333L44 15.3333M1 15.3333V29.6667L8.16667 40.4167M44 15.3333V29.6667L36.8333 40.4167M8.16667 40.4167L22.5 44L36.8333 40.4167" stroke="white"/>
</svg>
