<svg width="43" height="43" viewBox="0 0 43 43" fill="none" xmlns="http://www.w3.org/2000/svg">
<path d="M28.46 32.75L34.8545 39.1455L21.5 42.4844L8.14453 39.1455L14.54 32.75H28.46ZM6.79395 18.2891L13.7246 32.1514L7.24414 38.6318L0.5 28.5146V15.1416L6.79395 18.2891ZM42.5 28.5146L35.7549 38.6318L29.2744 32.1514L36.2051 18.2891L42.5 15.1416V28.5146ZM35.1992 18.0654L28.3574 31.75H14.6426L7.7998 18.0654L21.5 7.79102L35.1992 18.0654ZM21 6.91602L7.11328 17.3311L0.729492 14.1387L7.47461 4.02148L21 0.639648V6.91602ZM35.5244 4.02148L42.2695 14.1387L35.8857 17.3311L22 6.91602V0.639648L35.5244 4.02148Z" fill="black" stroke="white"/>
</svg>
