<svg width="43" height="43" viewBox="0 0 43 43" fill="none" xmlns="http://www.w3.org/2000/svg">
<path d="M21.5 7.16667L35.8333 17.9167L28.6667 32.25H14.3333L7.16667 17.9167L21.5 7.16667Z" fill="black"/>
<path d="M21.5 0V7.16667L7.16667 17.9167L0 14.3333L7.16667 3.58333L21.5 0Z" fill="black"/>
<path d="M21.5 0L35.8333 3.58333L43 14.3333L35.8333 17.9167L21.5 7.16667V0Z" fill="black"/>
<path d="M7.16667 17.9167L14.3333 32.25L7.16667 39.4167L0 28.6667V14.3333L7.16667 17.9167Z" fill="black"/>
<path d="M35.8333 17.9167L43 14.3333V28.6667L35.8333 39.4167L28.6667 32.25L35.8333 17.9167Z" fill="black"/>
<path d="M21.5 43L35.8333 39.4167L28.6667 32.25H14.3333L7.16667 39.4167L21.5 43Z" fill="black"/>
</svg>
