<svg width="45" height="42" viewBox="0 0 45 42" fill="none" xmlns="http://www.w3.org/2000/svg">
<path d="M22.7529 41L1 29L22.7529 1V41Z" fill="black"/>
<path d="M22.7529 41L1 29L22.7529 1V41Z" fill="black"/>
<path d="M22.7529 41L1 29L22.7529 1V41Z" fill="black"/>
<path d="M22.7529 41L1 29L22.7529 1V41Z" fill="black"/>
<path d="M22.7529 41L1 29L22.7529 1V41Z" fill="black"/>
<path d="M22.7529 41L1 29L22.7529 1V41Z" fill="black"/>
<path d="M22.7529 41L44 29L22.7529 1V41Z" fill="black"/>
<path d="M22.7529 41L44 29L22.7529 1V41Z" fill="black"/>
<path d="M22.7529 41L1 29L22.7529 1M22.7529 41V1M22.7529 41L44 29L22.7529 1" stroke="white"/>
</svg>
