<svg width="38" height="43" viewBox="0 0 38 43" fill="none" xmlns="http://www.w3.org/2000/svg">
<path d="M19 43L0 29.5625V10.75L19 0L38 10.75V29.5625L19 43Z" fill="black"/>
<path d="M19 13.4375L29.8571 32.25H8.14286L19 13.4375Z" fill="black"/>
<path d="M19 0L38 10.75L19 13.4375V0Z" fill="black"/>
<path d="M19 0V13.4375L0 10.75L19 0Z" fill="black"/>
<path d="M19 13.4375L38 10.75L29.8571 32.25L19 13.4375Z" fill="black"/>
<path d="M38 10.75V29.5625L29.8571 32.25L38 10.75Z" fill="black"/>
<path d="M19 13.4375L8.14286 32.25L0 10.75L19 13.4375Z" fill="black"/>
<path d="M0 10.75L8.14286 32.25L0 29.5625V10.75Z" fill="black"/>
<path d="M19 43L29.8571 32.25H8.14286L19 43Z" fill="black"/>
<path d="M19 43L38 29.5625L29.8571 32.25L19 43Z" fill="black"/>
<path d="M19 43L8.14286 32.25L0 29.5625L19 43Z" fill="black"/>
</svg>
